<svg width="22" height="22" viewBox="0 0 22 22" fill="none" xmlns="http://www.w3.org/2000/svg">
<path d="M1.78325 11.0002C1.78325 16.0904 5.90969 20.2168 10.9999 20.2168C16.0901 20.2168 20.2166 16.0904 20.2166 11.0002C20.2166 5.90994 16.0901 1.7835 10.9999 1.7835C5.90969 1.7835 1.78325 5.90994 1.78325 11.0002ZM19.1999 11.0002C19.1999 15.5289 15.5287 19.2002 10.9999 19.2002C6.47118 19.2002 2.79992 15.5289 2.79992 11.0002C2.79992 6.47143 6.47118 2.80016 10.9999 2.80016C15.5287 2.80016 19.1999 6.47143 19.1999 11.0002ZM14.6219 13.5873C14.7851 13.3588 14.7322 13.0414 14.5037 12.8782L11.4427 10.6917L10.1153 5.82474C10.0415 5.55389 9.76202 5.39421 9.49117 5.46807C9.22031 5.54194 9.06063 5.8214 9.1345 6.09225L10.5095 11.1339C10.5403 11.2469 10.6092 11.3458 10.7045 11.4138L13.9128 13.7055C14.1412 13.8687 14.4587 13.8157 14.6219 13.5873Z" fill="black" stroke="black" stroke-width="0.1"/>
</svg>
