<svg width="36" height="20" viewBox="0 0 36 20" fill="none" xmlns="http://www.w3.org/2000/svg">
<path fill-rule="evenodd" clip-rule="evenodd" d="M11.6125 2.49778C14.7296 -0.572079 17.9805 0.166801 19.6052 0.979947L16.9285 4.91087C16.3192 4.56647 15.7098 4.8314 14.46 5.98229C13.2101 7.13318 13.0571 8.64647 13.0571 10.6401H8.55709C8.55709 7.44192 9.7427 4.02573 11.6125 2.49778ZM22.9278 3.00405C27.3503 0.0466516 30.6407 0.841791 32.8583 1.82981L30.4109 5.77992C28.6976 5.23763 27.7466 4.96025 25.7785 6.48595C24.9672 7.15012 24.0824 8.4857 24.0824 11.4347C24.0824 11.5539 24.0813 11.6732 24.0791 11.7923C24.1178 12.2193 24.3521 13.0414 24.9676 13.8264C25.6185 14.6564 26.5292 15.2329 27.7533 15.2329C29.2102 15.2329 29.8978 14.7033 30.3252 14.0618C30.8463 13.2797 31.1377 12.0588 31.1377 10.5752H35.6377C35.6377 12.5057 35.2815 14.7386 34.0702 16.5568C32.7651 18.5157 30.6356 19.7329 27.7533 19.7329C25.4432 19.7329 23.6137 18.8016 22.2965 17.5577C22.287 17.5688 22.2775 17.5799 22.268 17.5909C20.7655 19.3261 19.1936 19.4797 16.2984 19.4797C13.4032 19.4797 10.7584 19.4797 10.7584 19.4797C10.7584 18.6529 10.7278 17.7361 10.2534 16.6864C10.2382 16.6527 10.2227 16.6196 10.2068 16.5871C10.1032 16.4291 10.0041 16.266 9.90976 16.0978C9.75939 15.8994 9.58866 15.7357 9.39501 15.6043C9.04512 15.367 8.46684 15.1303 7.46925 15.1303C6.58615 15.1303 5.9214 15.5701 5.36839 16.4963C4.77826 17.4847 4.5 18.4091 4.5 19.3494H0C0 17.7325 0.433653 15.9832 1.50469 14.1894C2.61285 12.3334 4.55789 10.6303 7.46925 10.6303C7.87461 10.6303 13.1427 10.6829 13.1427 10.6829C13.1427 12.0853 13.4098 13.0649 13.7539 13.7434C13.8663 13.9129 13.9699 14.0844 14.0653 14.2568C14.1553 14.3813 14.2466 14.4902 14.3366 14.5853C14.9339 15.217 15.638 15.4239 16.1025 15.4239C17.9101 15.4239 18.57 14.9871 18.8661 14.6452C19.2009 14.2586 19.5288 13.4767 19.5765 11.8506C19.5711 11.6832 19.573 11.5182 19.5826 11.3565C19.5988 7.47953 20.8245 4.72605 22.9278 3.00405Z" fill="#E6E0E8"/>
</svg>
