<svg width="93" height="92" viewBox="0 0 93 92" fill="none" xmlns="http://www.w3.org/2000/svg">
<path fill-rule="evenodd" clip-rule="evenodd" d="M50.9583 57.9139V56.1128H50.954C50.6747 53.8615 49.3687 51.8264 47.4052 50.6737C47.3962 50.6737 47.3872 50.6647 47.3872 50.6647C45.0634 49.3769 42.2441 49.3859 40.0464 50.6737C38.0468 51.8444 36.7679 53.8345 36.4977 56.1128H36.5357V57.9139H50.9583ZM49.1436 56.1128H38.3171C38.5693 54.4739 39.497 53.0871 40.9651 52.2316C42.6225 51.259 44.7481 51.268 46.5135 52.2406C47.9186 53.0601 48.8823 54.5009 49.1436 56.1128Z" fill="#FEFEFF"/>
<path fill-rule="evenodd" clip-rule="evenodd" d="M68.4546 40.5158V40.4258C68.4546 40.4168 68.4524 40.4078 68.4501 40.3988C68.4479 40.3898 68.4456 40.3808 68.4456 40.3718C68.4456 40.3628 68.4456 40.3537 68.4366 40.3357C68.4366 40.3267 68.4344 40.3177 68.4321 40.3087C68.4299 40.2997 68.4276 40.2907 68.4276 40.2817C68.4276 40.2817 68.4272 40.2779 68.4266 40.276C68.426 40.2741 68.4252 40.272 68.4243 40.2699C68.4217 40.2637 68.4186 40.2562 68.4186 40.2457C68.4141 40.2367 68.4119 40.2277 68.4096 40.2187C68.4074 40.2097 68.4051 40.2007 68.4006 40.1917C68.4006 40.1826 68.4006 40.1826 68.3916 40.1736L64.9779 31.9339V31.9249L61.9425 24.5857C61.8075 24.2525 61.4742 24.0273 61.1139 24.0273C60.7446 24.0273 60.4203 24.2525 60.2852 24.5857L57.2769 31.9159V31.9249L53.8992 40.1646C53.8992 40.1685 53.8992 40.1707 53.8985 40.1726C53.8976 40.1753 53.8954 40.1775 53.8902 40.1826C53.8857 40.1917 53.8834 40.2007 53.8812 40.2097C53.8789 40.2187 53.8767 40.2277 53.8722 40.2367C53.8722 40.2404 53.8706 40.2441 53.8688 40.2485C53.8663 40.2547 53.8632 40.2621 53.8632 40.2727C53.8542 40.2907 53.8542 40.3087 53.8542 40.3267C53.8542 40.3312 53.8519 40.338 53.8497 40.3447C53.8474 40.3515 53.8452 40.3582 53.8452 40.3628C53.8452 40.3717 53.8429 40.3807 53.8407 40.3897C53.8384 40.3988 53.8362 40.4078 53.8362 40.4168V45.7028C53.4579 45.4417 53.0615 45.1895 52.6562 44.9554C46.8647 41.4884 39.677 41.4884 33.8855 44.9554C29.5261 47.5669 26.4187 51.8354 25.1577 56.6892C25.1422 56.7279 25.1334 56.7733 25.1255 56.8138L25.1217 56.8332C24.7345 58.3731 24.5273 59.967 24.5273 61.579C24.5273 61.8221 24.6264 62.0472 24.7886 62.2183C24.9597 62.3894 25.1849 62.4795 25.4281 62.4795L43.2711 62.4075H53.8363V64.3256C53.8363 64.6047 53.9714 64.8749 54.1966 65.046L57.8355 67.7926C57.9885 67.9096 58.1867 67.9727 58.3759 67.9727H64.8249C65.0682 67.9727 65.2933 67.8736 65.4644 67.7115L68.2115 64.9649C68.3826 64.7938 68.4727 64.5687 68.4727 64.3256V40.5339C68.4546 40.5339 68.4546 40.5248 68.4546 40.5158ZM61.1049 27.3232L62.7982 31.4026H59.4386L61.1049 27.3232ZM55.6196 42.3439L57.4571 43.7307V49.0257C56.8896 48.3594 56.2771 47.72 55.6196 47.1347V42.3439ZM34.7863 46.5223C37.3984 44.9554 40.3257 44.1719 43.2439 44.1719C46.1712 44.1719 49.0984 44.9554 51.7015 46.5223C51.7015 46.5223 51.7105 46.5223 51.7105 46.5313C55.3673 48.6475 58.0514 52.0965 59.3394 56.1128L59.8259 57.9139C60.015 58.8054 60.1321 59.7149 60.1772 60.6424H43.244L26.3287 60.7055C26.3738 59.7599 26.4998 58.8234 26.698 57.9139L27.1844 56.1128C28.4904 52.1505 31.1565 48.7016 34.7863 46.5223ZM57.4571 65.2981L55.6196 63.9113V62.4435H57.4571V65.2981ZM59.2585 62.4435H61.1049C61.6003 62.4435 62.0056 62.0382 62.0056 61.543C62.0056 59.949 61.8075 58.3821 61.4382 56.8693C61.4292 56.8152 61.4202 56.7612 61.4021 56.7162C60.9338 54.8881 60.2132 53.1501 59.2585 51.5562V43.6677L61.1049 41.8216L62.9513 43.6677V66.2076H59.2585V62.4435ZM61.7354 39.8945C61.3841 39.5433 60.8167 39.5433 60.4654 39.8945L58.2767 42.0827L55.8178 40.2277L58.7 33.1946H63.5458L66.4551 40.2277L63.9331 42.0917L61.7354 39.8945ZM66.6532 63.9744L64.7438 65.8834V43.7307L66.6532 42.3169V63.9744Z" fill="#FEFEFF"/>
</svg>
